<svg xmlns="http://www.w3.org/2000/svg" width="16" height="16"><defs><linearGradient id="a" x1=".563" y1=".234" x2=".5" y2="1" gradientUnits="objectBoundingBox"><stop offset="0" stop-color="#00aeef" stop-opacity=".71"/><stop offset="1" stop-color="#1390e4"/></linearGradient></defs><path data-name="Icon awesome-info-circle" d="M8.563.563a8 8 0 1 0 8 8 8 8 0 0 0-8-8zm0 3.548a1.355 1.355 0 1 1-1.355 1.355 1.355 1.355 0 0 1 1.355-1.355zm1.806 8.189a.387.387 0 0 1-.387.387H7.143a.387.387 0 0 1-.387-.387v-.77a.387.387 0 0 1 .387-.387h.387V9.079h-.387a.387.387 0 0 1-.387-.387v-.775a.387.387 0 0 1 .387-.387h2.065a.387.387 0 0 1 .387.387v3.226h.387a.387.387 0 0 1 .387.387z" transform="translate(-.563 -.563)" style="fill:url(#a)"/></svg>